<svg xmlns="http://www.w3.org/2000/svg" viewBox="0 0 100 100"><defs><style>.cls-1{fill:#7159c1;}.cls-2{fill:none;}</style></defs><title>Ativo 2</title><g id="Camada_2" data-name="Camada 2"><g id="Layer_1" data-name="Layer 1"><path class="cls-1" d="M86.84,70.7a8.35,8.35,0,0,0-6.32,13.83,47,47,0,0,1-56.67-1.19,5.76,5.76,0,0,0-5-8.62,5.67,5.67,0,0,0-2.86.77,47,47,0,0,1-1.1-57,8.44,8.44,0,1,0-1.65-2,49.54,49.54,0,0,0,.9,60.62,5.76,5.76,0,0,0,4.71,9.08,5.66,5.66,0,0,0,3.32-1.06,49.53,49.53,0,0,0,60.32,1A8.36,8.36,0,1,0,86.84,70.7ZM20.38,6.29a5.94,5.94,0,1,1-5.94,5.94A5.94,5.94,0,0,1,20.38,6.29ZM86.84,85a5.94,5.94,0,1,1,5.94-5.93A5.95,5.95,0,0,1,86.84,85Z"/><path class="cls-1" d="M73.77,11.64l-24,10.78L30.68,66.17h0L56.18,41.36a10.11,10.11,0,1,1,3.07,2.91l-25,26.2.53.65L78.47,50.86,89.39,27.62Z"/><polygon class="cls-1" points="77.12 8.83 83.44 2.06 98.68 17.3 92.55 23.44 77.12 8.83"/><rect class="cls-2" width="100" height="100"/></g></g></svg>