<?xml version="1.0" encoding="utf-8"?>
<!-- Generator: Adobe Illustrator 24.0.1, SVG Export Plug-In . SVG Version: 6.00 Build 0)  -->
<svg version="1.1" id="Capa_1" xmlns="http://www.w3.org/2000/svg" xmlns:xlink="http://www.w3.org/1999/xlink" x="0px" y="0px"
	 viewBox="0 0 512 512" style="enable-background:new 0 0 512 512;" xml:space="preserve">
<style type="text/css">
	.st0{fill:#7159C1;}
</style>
<g>
	<path class="st0" d="M276.1,261.9c5.9-5.5,9.8-13.2,9.8-21.9c0-16.6-13.4-30-30-30s-30,13.4-30,30c0,8.7,3.8,16.4,9.8,21.9
		l-109,220H91v30h54.2l95.7-193.4v163.4h-30v30h90v-30h-30V318.5l95.7,193.4h54.2v-30h-35.7L276.1,261.9z"/>
	<path class="st0" d="M428.7,7.9l7.8,29l-29,7.8l38.8,144.8l29-7.8l7.8,29l29-7.8L457.7,0.1L428.7,7.9z"/>
	<path class="st0" d="M67.8,290.3l-15.5-57.9l29-7.8l7.8,29l29-7.8l-23.3-86.9l-29,7.8l7.8,29l-29,7.8L29,145.5l-29,7.8l38.8,144.8
		L67.8,290.3z"/>
	<path class="st0" d="M198.2,255.6c-1.4-5-2.3-10.2-2.3-15.6c0-33.1,26.9-60,60-60c27.8,0,50.9,19,57.7,44.7l103.7-27.5L378.5,52.4
		l-262.7,69.9L154.7,267L198.2,255.6z"/>
</g>
</svg>
